<?xml version="1.0" encoding="utf-8"?>
<svg xmlns="http://www.w3.org/2000/svg" fill="none" height="552" viewBox="0 0 552 552" width="552">
<circle cx="276" cy="276" fill="url(#paint0_radial_2345_48316)" fill-opacity="0.75" r="276"/>
<g clip-path="url(#clip0_2345_48316)">
<mask height="306" id="mask0_2345_48316" maskUnits="userSpaceOnUse" style="mask-type:luminance" width="464" x="44" y="120">
<path d="M492.533 120.533H59.4667C50.9247 120.533 44 127.458 44 136V410.533C44 419.075 50.9247 426 59.4667 426H492.533C501.075 426 508 419.075 508 410.533V136C508 127.458 501.075 120.533 492.533 120.533Z" fill="white"/>
</mask>
<g mask="url(#mask0_2345_48316)">
<path d="M492.533 120.533H59.4667C50.9247 120.533 44 127.458 44 136V410.533C44 419.075 50.9247 426 59.4667 426H492.533C501.075 426 508 419.075 508 410.533V136C508 127.458 501.075 120.533 492.533 120.533Z" fill="#F8F8F8"/>
<path d="M508 120.533H44V199.8H508V120.533Z" fill="#F8F8F8"/>
<path d="M508 120.533H44V197.867H508V120.533Z" fill="#F8F8F8"/>
<path d="M85.5523 154.913C85.4864 154.249 85.2035 153.733 84.7038 153.364C84.204 152.996 83.5256 152.812 82.6687 152.812C82.0866 152.812 81.595 152.895 81.194 153.06C80.7932 153.219 80.4856 153.441 80.2714 153.727C80.0626 154.013 79.9582 154.337 79.9582 154.699C79.9474 155.001 80.0104 155.265 80.1477 155.49C80.2905 155.715 80.4856 155.91 80.7327 156.075C80.9798 156.234 81.2655 156.374 81.5895 156.495C81.9136 156.61 82.2596 156.709 82.6275 156.792L84.1435 157.154C84.8795 157.319 85.555 157.539 86.1702 157.813C86.7854 158.088 87.3182 158.426 87.7685 158.827C88.2189 159.228 88.5677 159.7 88.8148 160.244C89.0675 160.787 89.1964 161.411 89.202 162.114C89.1964 163.146 88.9329 164.042 88.4111 164.8C87.8947 165.552 87.1479 166.137 86.1702 166.555C85.1981 166.966 84.0253 167.172 82.6523 167.172C81.2903 167.172 80.1038 166.964 79.0932 166.546C78.0881 166.129 77.3028 165.511 76.7369 164.693C76.1768 163.869 75.8829 162.85 75.8555 161.636H79.3074C79.3459 162.202 79.5079 162.674 79.7935 163.053C80.0846 163.427 80.4719 163.709 80.9552 163.902C81.444 164.088 81.9959 164.182 82.6111 164.182C83.2153 164.182 83.7398 164.094 84.1847 163.918C84.6351 163.742 84.9839 163.498 85.231 163.185C85.4781 162.872 85.6018 162.512 85.6018 162.106C85.6018 161.727 85.4891 161.408 85.264 161.15C85.0442 160.892 84.7202 160.672 84.2918 160.491C83.8689 160.31 83.3498 160.145 82.7347 159.997L80.8974 159.535C79.4749 159.189 78.3518 158.648 77.5278 157.912C76.704 157.176 76.2947 156.185 76.3003 154.938C76.2947 153.916 76.5667 153.024 77.116 152.26C77.6707 151.497 78.4314 150.901 79.3981 150.473C80.3648 150.044 81.4631 149.83 82.6935 149.83C83.9457 149.83 85.0388 150.044 85.9724 150.473C86.9116 150.901 87.6422 151.497 88.164 152.26C88.6856 153.024 88.9548 153.908 88.9714 154.913H85.5523ZM98.4985 154.279V156.915H90.8779V154.279H98.4985ZM92.608 151.247H96.1176V163.045C96.1176 163.369 96.1671 163.622 96.2659 163.803C96.3648 163.979 96.5021 164.102 96.6779 164.173C96.859 164.245 97.0678 164.281 97.3039 164.281C97.4688 164.281 97.6335 164.267 97.7982 164.239C97.9631 164.207 98.0894 164.182 98.1773 164.165L98.7293 166.777C98.5536 166.832 98.3063 166.895 97.9877 166.966C97.6693 167.043 97.282 167.09 96.8261 167.107C95.9803 167.139 95.2389 167.027 94.6016 166.769C93.97 166.51 93.4786 166.11 93.1269 165.566C92.7754 165.022 92.6024 164.335 92.608 163.506V151.247ZM103.184 171.679C102.739 171.679 102.321 171.643 101.931 171.572C101.547 171.506 101.228 171.421 100.976 171.316L101.767 168.697C102.178 168.823 102.549 168.892 102.879 168.903C103.214 168.913 103.502 168.837 103.744 168.672C103.991 168.507 104.191 168.227 104.345 167.832L104.551 167.296L100.012 154.279H103.703L106.322 163.572H106.454L109.099 154.279H112.814L107.896 168.301C107.66 168.982 107.339 169.575 106.932 170.081C106.531 170.591 106.023 170.984 105.408 171.259C104.793 171.539 104.051 171.679 103.184 171.679ZM118.352 150.061V166.934H114.842V150.061H118.352ZM127.163 167.181C125.861 167.181 124.741 166.917 123.801 166.39C122.868 165.857 122.148 165.105 121.643 164.132C121.137 163.155 120.885 161.998 120.885 160.664C120.885 159.362 121.137 158.22 121.643 157.237C122.148 156.254 122.859 155.487 123.777 154.938C124.699 154.389 125.781 154.114 127.023 154.114C127.857 154.114 128.635 154.249 129.354 154.518C130.079 154.782 130.711 155.18 131.249 155.712C131.793 156.245 132.216 156.915 132.518 157.723C132.82 158.525 132.971 159.464 132.971 160.54V161.504H122.285V159.329H129.667C129.667 158.824 129.557 158.376 129.338 157.986C129.118 157.596 128.813 157.292 128.423 157.072C128.039 156.847 127.591 156.734 127.08 156.734C126.547 156.734 126.075 156.858 125.663 157.105C125.257 157.346 124.938 157.673 124.708 158.085C124.477 158.492 124.359 158.945 124.353 159.445V161.512C124.353 162.139 124.469 162.68 124.699 163.135C124.935 163.591 125.268 163.943 125.696 164.19C126.125 164.437 126.633 164.561 127.22 164.561C127.61 164.561 127.967 164.506 128.291 164.396C128.615 164.286 128.893 164.121 129.123 163.902C129.354 163.682 129.53 163.413 129.651 163.094L132.897 163.309C132.732 164.088 132.394 164.77 131.883 165.352C131.378 165.928 130.724 166.379 129.923 166.703C129.126 167.021 128.206 167.181 127.163 167.181Z" fill="#11181C"/>
<path d="M167.266 166.932V150.06H173.922C175.202 150.06 176.293 150.304 177.193 150.793C178.094 151.276 178.781 151.949 179.253 152.811C179.731 153.668 179.97 154.657 179.97 155.777C179.97 156.898 179.728 157.886 179.245 158.743C178.761 159.6 178.061 160.267 177.144 160.745C176.232 161.223 175.128 161.462 173.832 161.462H169.589V158.603H173.255C173.942 158.603 174.508 158.485 174.952 158.249C175.403 158.007 175.738 157.675 175.958 157.252C176.183 156.824 176.295 156.332 176.295 155.777C176.295 155.217 176.183 154.728 175.958 154.311C175.738 153.888 175.403 153.561 174.952 153.33C174.502 153.094 173.931 152.976 173.239 152.976H170.833V166.932H167.266ZM182.453 166.932V154.278H185.855V156.486H185.987C186.218 155.7 186.605 155.107 187.149 154.706C187.693 154.3 188.319 154.097 189.027 154.097C189.203 154.097 189.393 154.108 189.596 154.13C189.799 154.152 189.977 154.182 190.131 154.22V157.334C189.966 157.285 189.739 157.241 189.448 157.203C189.156 157.164 188.89 157.145 188.648 157.145C188.132 157.145 187.671 157.257 187.264 157.483C186.863 157.703 186.545 158.01 186.309 158.405C186.078 158.801 185.963 159.257 185.963 159.773V166.932H182.453ZM197.306 167.18C196.027 167.18 194.92 166.908 193.986 166.364C193.058 165.815 192.341 165.051 191.836 164.074C191.331 163.091 191.078 161.951 191.078 160.655C191.078 159.347 191.331 158.205 191.836 157.227C192.341 156.244 193.058 155.481 193.986 154.937C194.92 154.388 196.027 154.113 197.306 154.113C198.586 154.113 199.69 154.388 200.618 154.937C201.552 155.481 202.272 156.244 202.777 157.227C203.282 158.205 203.535 159.347 203.535 160.655C203.535 161.951 203.282 163.091 202.777 164.074C202.272 165.051 201.552 165.815 200.618 166.364C199.69 166.908 198.586 167.18 197.306 167.18ZM197.323 164.461C197.905 164.461 198.391 164.296 198.781 163.967C199.171 163.631 199.465 163.176 199.663 162.599C199.866 162.022 199.967 161.366 199.967 160.63C199.967 159.894 199.866 159.238 199.663 158.661C199.465 158.084 199.171 157.628 198.781 157.293C198.391 156.958 197.905 156.791 197.323 156.791C196.735 156.791 196.241 156.958 195.84 157.293C195.444 157.628 195.145 158.084 194.942 158.661C194.744 159.238 194.645 159.894 194.645 160.63C194.645 161.366 194.744 162.022 194.942 162.599C195.145 163.176 195.444 163.631 195.84 163.967C196.241 164.296 196.735 164.461 197.323 164.461ZM206.049 171.678V154.278H209.509V156.404H209.666C209.819 156.063 210.042 155.717 210.333 155.365C210.63 155.008 211.014 154.712 211.486 154.476C211.964 154.234 212.557 154.113 213.266 154.113C214.189 154.113 215.04 154.355 215.82 154.838C216.6 155.316 217.223 156.038 217.69 157.005C218.157 157.966 218.39 159.172 218.39 160.622C218.39 162.033 218.162 163.225 217.706 164.197C217.256 165.164 216.641 165.897 215.861 166.397C215.087 166.891 214.219 167.138 213.258 167.138C212.577 167.138 211.997 167.026 211.519 166.801C211.047 166.575 210.66 166.293 210.358 165.952C210.056 165.606 209.825 165.257 209.666 164.906H209.558V171.678H206.049ZM209.484 160.605C209.484 161.358 209.589 162.014 209.797 162.574C210.006 163.134 210.308 163.571 210.704 163.884C211.099 164.192 211.58 164.345 212.145 164.345C212.717 164.345 213.2 164.189 213.595 163.876C213.991 163.557 214.29 163.118 214.493 162.558C214.702 161.992 214.806 161.341 214.806 160.605C214.806 159.875 214.705 159.232 214.502 158.677C214.299 158.123 213.999 157.689 213.604 157.376C213.208 157.063 212.722 156.906 212.145 156.906C211.574 156.906 211.091 157.057 210.695 157.359C210.305 157.661 210.006 158.09 209.797 158.644C209.589 159.199 209.484 159.853 209.484 160.605ZM226.729 167.18C225.427 167.18 224.307 166.916 223.368 166.389C222.434 165.856 221.715 165.104 221.209 164.131C220.704 163.154 220.451 161.997 220.451 160.663C220.451 159.361 220.704 158.219 221.209 157.236C221.715 156.253 222.426 155.486 223.343 154.937C224.266 154.388 225.348 154.113 226.589 154.113C227.424 154.113 228.201 154.248 228.921 154.517C229.646 154.78 230.277 155.179 230.815 155.711C231.359 156.244 231.782 156.914 232.084 157.722C232.386 158.524 232.537 159.463 232.537 160.539V161.503H221.852V159.328H229.234C229.234 158.823 229.124 158.375 228.904 157.985C228.685 157.595 228.38 157.291 227.99 157.071C227.605 156.846 227.158 156.733 226.647 156.733C226.114 156.733 225.642 156.857 225.23 157.104C224.823 157.345 224.505 157.672 224.274 158.084C224.043 158.491 223.925 158.944 223.92 159.443V161.511C223.92 162.138 224.035 162.679 224.266 163.134C224.502 163.59 224.834 163.942 225.263 164.189C225.691 164.436 226.199 164.56 226.787 164.56C227.177 164.56 227.534 164.505 227.858 164.395C228.182 164.285 228.459 164.12 228.69 163.901C228.921 163.681 229.096 163.412 229.217 163.093L232.463 163.307C232.299 164.087 231.961 164.768 231.45 165.351C230.945 165.927 230.291 166.378 229.489 166.702C228.693 167.02 227.773 167.18 226.729 167.18ZM235.06 166.932V154.278H238.462V156.486H238.595C238.825 155.7 239.212 155.107 239.755 154.706C240.3 154.3 240.927 154.097 241.634 154.097C241.81 154.097 242 154.108 242.203 154.13C242.406 154.152 242.583 154.182 242.738 154.22V157.334C242.574 157.285 242.346 157.241 242.054 157.203C241.764 157.164 241.497 157.145 241.255 157.145C240.739 157.145 240.277 157.257 239.871 157.483C239.471 157.703 239.152 158.01 238.916 158.405C238.684 158.801 238.57 159.257 238.57 159.773V166.932H235.06ZM252.15 154.278V156.914H244.528V154.278H252.15ZM246.259 151.246H249.77V163.044C249.77 163.368 249.818 163.62 249.917 163.802C250.017 163.978 250.154 164.101 250.328 164.172C250.51 164.244 250.719 164.28 250.955 164.28C251.121 164.28 251.285 164.266 251.45 164.238C251.614 164.205 251.742 164.181 251.829 164.164L252.382 166.776C252.206 166.831 251.958 166.894 251.639 166.965C251.32 167.042 250.934 167.089 250.477 167.105C249.632 167.138 248.89 167.026 248.254 166.768C247.622 166.509 247.131 166.109 246.779 165.565C246.427 165.021 246.255 164.334 246.259 163.505V151.246ZM254.669 166.932V154.278H258.178V166.932H254.669ZM256.432 152.647C255.91 152.647 255.461 152.474 255.088 152.128C254.721 151.776 254.537 151.356 254.537 150.867C254.537 150.384 254.721 149.969 255.088 149.623C255.461 149.272 255.91 149.096 256.432 149.096C256.954 149.096 257.399 149.272 257.766 149.623C258.139 149.969 258.327 150.384 258.327 150.867C258.327 151.356 258.139 151.776 257.766 152.128C257.399 152.474 256.954 152.647 256.432 152.647ZM266.988 167.18C265.687 167.18 264.565 166.916 263.628 166.389C262.694 165.856 261.975 165.104 261.468 164.131C260.964 163.154 260.71 161.997 260.71 160.663C260.71 159.361 260.964 158.219 261.468 157.236C261.975 156.253 262.684 155.486 263.603 154.937C264.525 154.388 265.608 154.113 266.849 154.113C267.684 154.113 268.461 154.248 269.18 154.517C269.905 154.78 270.536 155.179 271.075 155.711C271.618 156.244 272.042 156.914 272.343 157.722C272.645 158.524 272.798 159.463 272.798 160.539V161.503H262.112V159.328H269.494C269.494 158.823 269.383 158.375 269.163 157.985C268.944 157.595 268.639 157.291 268.248 157.071C267.864 156.846 267.417 156.733 266.907 156.733C266.373 156.733 265.901 156.857 265.49 157.104C265.082 157.345 264.765 157.672 264.533 158.084C264.303 158.491 264.185 158.944 264.179 159.443V161.511C264.179 162.138 264.295 162.679 264.525 163.134C264.761 163.59 265.093 163.942 265.522 164.189C265.95 164.436 266.458 164.56 267.046 164.56C267.436 164.56 267.792 164.505 268.117 164.395C268.442 164.285 268.718 164.12 268.948 163.901C269.18 163.681 269.356 163.412 269.476 163.093L272.722 163.307C272.558 164.087 272.22 164.768 271.709 165.351C271.205 165.927 270.551 166.378 269.749 166.702C268.952 167.02 268.032 167.18 266.988 167.18ZM285.848 157.886L282.634 158.084C282.58 157.809 282.462 157.562 282.281 157.343C282.099 157.117 281.861 156.939 281.563 156.807C281.273 156.67 280.923 156.601 280.517 156.601C279.974 156.601 279.516 156.717 279.141 156.947C278.768 157.172 278.582 157.475 278.582 157.854C278.582 158.155 278.702 158.411 278.944 158.62C279.185 158.828 279.601 158.996 280.189 159.122L282.478 159.584C283.709 159.836 284.626 160.243 285.231 160.803C285.834 161.363 286.136 162.099 286.136 163.011C286.136 163.84 285.892 164.568 285.403 165.194C284.92 165.82 284.255 166.309 283.41 166.661C282.569 167.007 281.6 167.18 280.502 167.18C278.826 167.18 277.492 166.831 276.498 166.133C275.508 165.43 274.928 164.475 274.758 163.266L278.211 163.085C278.315 163.596 278.569 163.986 278.969 164.255C279.369 164.518 279.883 164.65 280.51 164.65C281.124 164.65 281.619 164.532 281.993 164.296C282.371 164.054 282.563 163.744 282.569 163.365C282.563 163.047 282.429 162.786 282.165 162.582C281.902 162.374 281.496 162.215 280.947 162.105L278.754 161.668C277.519 161.421 276.599 160.992 275.995 160.383C275.396 159.773 275.096 158.996 275.096 158.051C275.096 157.238 275.317 156.538 275.756 155.95C276.2 155.363 276.825 154.909 277.625 154.591C278.433 154.272 279.379 154.113 280.459 154.113C282.058 154.113 283.317 154.451 284.233 155.127C285.155 155.802 285.695 156.722 285.848 157.886Z" fill="#889096"/>
<path d="M329.153 154.912C329.087 154.248 328.805 153.731 328.304 153.363C327.803 152.995 327.127 152.811 326.268 152.811C325.686 152.811 325.195 152.894 324.795 153.059C324.393 153.218 324.085 153.44 323.871 153.726C323.662 154.012 323.558 154.336 323.558 154.698C323.548 155 323.61 155.264 323.747 155.489C323.89 155.714 324.085 155.909 324.333 156.074C324.58 156.233 324.866 156.373 325.189 156.494C325.514 156.609 325.86 156.708 326.228 156.791L327.743 157.153C328.48 157.318 329.155 157.538 329.769 157.812C330.386 158.087 330.918 158.425 331.368 158.826C331.819 159.227 332.169 159.699 332.414 160.243C332.667 160.786 332.797 161.41 332.803 162.113C332.797 163.145 332.532 164.041 332.012 164.799C331.496 165.551 330.748 166.136 329.769 166.554C328.799 166.965 327.625 167.171 326.253 167.171C324.89 167.171 323.705 166.963 322.693 166.545C321.688 166.128 320.903 165.51 320.337 164.692C319.776 163.868 319.482 162.849 319.455 161.635H322.908C322.947 162.201 323.107 162.673 323.393 163.052C323.685 163.426 324.072 163.708 324.555 163.901C325.044 164.087 325.595 164.181 326.212 164.181C326.815 164.181 327.339 164.093 327.786 163.917C328.234 163.741 328.584 163.497 328.832 163.184C329.079 162.871 329.201 162.511 329.201 162.105C329.201 161.726 329.089 161.407 328.865 161.149C328.644 160.891 328.321 160.671 327.892 160.49C327.469 160.309 326.951 160.144 326.336 159.995L324.497 159.534C323.074 159.188 321.951 158.647 321.127 157.911C320.304 157.175 319.896 156.184 319.9 154.937C319.896 153.915 320.167 153.023 320.716 152.259C321.27 151.496 322.032 150.9 322.999 150.472C323.966 150.043 325.064 149.829 326.293 149.829C327.546 149.829 328.638 150.043 329.572 150.472C330.512 150.9 331.243 151.496 331.765 152.259C332.287 153.023 332.555 153.907 332.571 154.912H329.153ZM341.135 167.18C339.832 167.18 338.713 166.916 337.773 166.389C336.84 165.856 336.12 165.104 335.616 164.131C335.109 163.154 334.858 161.997 334.858 160.663C334.858 159.361 335.109 158.219 335.616 157.236C336.12 156.253 336.832 155.486 337.748 154.937C338.672 154.388 339.753 154.113 340.994 154.113C341.83 154.113 342.607 154.248 343.326 154.517C344.051 154.78 344.683 155.179 345.221 155.711C345.766 156.244 346.187 156.914 346.491 157.722C346.792 158.524 346.943 159.463 346.943 160.539V161.503H336.258V159.328H343.639C343.639 158.823 343.529 158.375 343.31 157.985C343.09 157.595 342.785 157.291 342.396 157.071C342.011 156.846 341.563 156.733 341.052 156.733C340.519 156.733 340.047 156.857 339.635 157.104C339.229 157.345 338.91 157.672 338.68 158.084C338.448 158.491 338.33 158.944 338.326 159.443V161.511C338.326 162.138 338.44 162.679 338.672 163.134C338.908 163.59 339.241 163.942 339.668 164.189C340.097 164.436 340.606 164.56 341.192 164.56C341.582 164.56 341.94 164.505 342.263 164.395C342.587 164.285 342.866 164.12 343.096 163.901C343.326 163.681 343.502 163.412 343.624 163.093L346.87 163.307C346.703 164.087 346.367 164.768 345.855 165.351C345.35 165.927 344.697 166.378 343.894 166.702C343.098 167.02 342.178 167.18 341.135 167.18ZM356.196 154.278V156.914H348.575V154.278H356.196ZM350.305 151.246H353.816V163.044C353.816 163.368 353.865 163.62 353.963 163.802C354.062 163.978 354.199 164.101 354.375 164.172C354.557 164.244 354.765 164.28 355.001 164.28C355.166 164.28 355.332 164.266 355.496 164.238C355.661 164.205 355.786 164.181 355.875 164.164L356.426 166.776C356.252 166.831 356.005 166.894 355.686 166.965C355.367 167.042 354.98 167.089 354.524 167.105C353.679 167.138 352.937 167.026 352.299 166.768C351.668 166.509 351.177 166.109 350.825 165.565C350.473 165.021 350.299 164.334 350.305 163.505V151.246ZM365.445 154.278V156.914H357.824V154.278H365.445ZM359.554 151.246H363.065V163.044C363.065 163.368 363.114 163.62 363.212 163.802C363.311 163.978 363.45 164.101 363.624 164.172C363.806 164.244 364.015 164.28 364.25 164.28C364.417 164.28 364.581 164.266 364.745 164.238C364.91 164.205 365.037 164.181 365.124 164.164L365.677 166.776C365.501 166.831 365.254 166.894 364.935 166.965C364.616 167.042 364.229 167.089 363.773 167.105C362.928 167.138 362.186 167.026 361.55 166.768C360.917 166.509 360.426 166.109 360.074 165.565C359.723 165.021 359.549 164.334 359.554 163.505V151.246ZM367.964 166.932V154.278H371.473V166.932H367.964ZM369.728 152.647C369.206 152.647 368.757 152.474 368.384 152.128C368.017 151.776 367.833 151.356 367.833 150.867C367.833 150.384 368.017 149.969 368.384 149.623C368.757 149.272 369.206 149.096 369.728 149.096C370.25 149.096 370.694 149.272 371.062 149.623C371.435 149.969 371.622 150.384 371.622 150.867C371.622 151.356 371.435 151.776 371.062 152.128C370.694 152.474 370.25 152.647 369.728 152.647ZM378.027 159.617V166.932H374.516V154.278H377.861V156.511H378.01C378.29 155.775 378.76 155.192 379.419 154.764C380.079 154.33 380.877 154.113 381.817 154.113C382.694 154.113 383.462 154.305 384.115 154.69C384.769 155.074 385.277 155.624 385.639 156.338C386.002 157.046 386.182 157.892 386.182 158.875V166.932H382.673V159.501C382.679 158.727 382.482 158.123 382.08 157.689C381.679 157.249 381.126 157.03 380.425 157.03C379.951 157.03 379.533 157.131 379.172 157.334C378.814 157.538 378.534 157.834 378.331 158.224C378.134 158.609 378.031 159.073 378.027 159.617ZM394.882 171.942C393.745 171.942 392.771 171.785 391.957 171.472C391.151 171.164 390.507 170.744 390.029 170.211C389.552 169.679 389.241 169.08 389.098 168.415L392.344 167.979C392.444 168.231 392.601 168.468 392.813 168.687C393.028 168.907 393.31 169.083 393.662 169.215C394.02 169.352 394.453 169.42 394.965 169.42C395.727 169.42 396.357 169.234 396.85 168.86C397.351 168.492 397.6 167.874 397.6 167.007V164.692H397.452C397.299 165.043 397.069 165.375 396.761 165.688C396.452 166.002 396.058 166.257 395.574 166.455C395.091 166.652 394.515 166.751 393.844 166.751C392.895 166.751 392.029 166.531 391.249 166.092C390.474 165.647 389.857 164.969 389.395 164.057C388.939 163.14 388.711 161.981 388.711 160.58C388.711 159.147 388.945 157.95 389.411 156.988C389.879 156.027 390.499 155.308 391.273 154.83C392.054 154.352 392.908 154.113 393.836 154.113C394.544 154.113 395.137 154.234 395.615 154.476C396.092 154.712 396.477 155.008 396.769 155.365C397.065 155.717 397.293 156.063 397.452 156.404H397.585V154.278H401.069V167.056C401.069 168.132 400.806 169.033 400.278 169.758C399.75 170.483 399.021 171.027 398.088 171.39C397.16 171.757 396.09 171.942 394.882 171.942ZM394.956 164.115C395.522 164.115 396 163.975 396.39 163.695C396.785 163.409 397.088 163.003 397.297 162.475C397.51 161.943 397.618 161.305 397.618 160.564C397.618 159.822 397.513 159.18 397.305 158.636C397.096 158.087 396.794 157.661 396.398 157.359C396.002 157.057 395.522 156.906 394.956 156.906C394.379 156.906 393.894 157.063 393.498 157.376C393.102 157.683 392.804 158.112 392.601 158.661C392.396 159.21 392.295 159.844 392.295 160.564C392.295 161.294 392.396 161.926 392.601 162.459C392.81 162.986 393.107 163.395 393.498 163.686C393.894 163.972 394.379 164.115 394.956 164.115ZM414.623 157.886L411.41 158.084C411.356 157.809 411.236 157.562 411.056 157.343C410.875 157.117 410.635 156.939 410.339 156.807C410.047 156.67 409.699 156.601 409.293 156.601C408.75 156.601 408.29 156.717 407.917 156.947C407.544 157.172 407.356 157.475 407.356 157.854C407.356 158.155 407.478 158.411 407.719 158.62C407.961 158.828 408.375 158.996 408.963 159.122L411.254 159.584C412.483 159.836 413.402 160.243 414.005 160.803C414.61 161.363 414.911 162.099 414.911 163.011C414.911 163.84 414.668 164.568 414.179 165.194C413.695 165.82 413.03 166.309 412.184 166.661C411.344 167.007 410.374 167.18 409.276 167.18C407.602 167.18 406.266 166.831 405.272 166.133C404.284 165.43 403.704 164.475 403.534 163.266L406.987 163.085C407.091 163.596 407.342 163.986 407.745 164.255C408.145 164.518 408.659 164.65 409.284 164.65C409.9 164.65 410.393 164.532 410.768 164.296C411.147 164.054 411.339 163.744 411.344 163.365C411.339 163.047 411.203 162.786 410.94 162.582C410.677 162.374 410.27 162.215 409.72 162.105L407.53 161.668C406.295 161.421 405.374 160.992 404.769 160.383C404.172 159.773 403.872 158.996 403.872 158.051C403.872 157.238 404.091 156.538 404.531 155.95C404.976 155.363 405.599 154.909 406.401 154.591C407.209 154.272 408.153 154.113 409.235 154.113C410.834 154.113 412.091 154.451 413.009 155.127C413.931 155.802 414.469 156.722 414.623 157.886Z" fill="#889096"/>
<path clip-rule="evenodd" d="M508 199.801H44V197.867H508V199.801Z" fill="#C1C8CD" fill-rule="evenodd"/>
<path d="M508 199.801H44V426.001H508V199.801Z" fill="#F8F8F8"/>
<path d="M508 199.801H44V277.134H508V199.801Z" fill="#F8F8F8"/>
<path d="M85.5523 234.179C85.4864 233.514 85.2035 232.998 84.7038 232.63C84.204 232.262 83.5256 232.078 82.6687 232.078C82.0866 232.078 81.595 232.16 81.194 232.325C80.7932 232.484 80.4856 232.707 80.2714 232.993C80.0626 233.278 79.9582 233.602 79.9582 233.965C79.9474 234.267 80.0104 234.53 80.1477 234.756C80.2905 234.981 80.4856 235.176 80.7327 235.341C80.9798 235.5 81.2655 235.64 81.5895 235.761C81.9136 235.876 82.2596 235.975 82.6275 236.057L84.1435 236.42C84.8795 236.585 85.555 236.804 86.1702 237.079C86.7854 237.354 87.3182 237.691 87.7685 238.092C88.2189 238.493 88.5677 238.966 88.8148 239.509C89.0675 240.053 89.1964 240.677 89.202 241.38C89.1964 242.412 88.9329 243.307 88.4111 244.065C87.8947 244.818 87.1479 245.403 86.1702 245.82C85.1981 246.232 84.0253 246.438 82.6523 246.438C81.2903 246.438 80.1038 246.229 79.0932 245.812C78.0881 245.394 77.3028 244.777 76.7369 243.958C76.1768 243.134 75.8829 242.116 75.8555 240.902H79.3074C79.3459 241.467 79.5079 241.94 79.7935 242.319C80.0846 242.692 80.4719 242.975 80.9552 243.167C81.444 243.354 81.9959 243.447 82.6111 243.447C83.2153 243.447 83.7398 243.359 84.1847 243.184C84.6351 243.008 84.9839 242.764 85.231 242.451C85.4781 242.137 85.6018 241.778 85.6018 241.371C85.6018 240.992 85.4891 240.674 85.264 240.416C85.0442 240.157 84.7202 239.938 84.2918 239.756C83.8689 239.575 83.3498 239.41 82.7347 239.262L80.8974 238.801C79.4749 238.455 78.3518 237.914 77.5278 237.178C76.704 236.442 76.2947 235.45 76.3003 234.204C76.2947 233.182 76.5667 232.29 77.116 231.526C77.6707 230.763 78.4314 230.167 79.3981 229.738C80.3648 229.31 81.4631 229.096 82.6935 229.096C83.9457 229.096 85.0388 229.31 85.9724 229.738C86.9116 230.167 87.6422 230.763 88.164 231.526C88.6856 232.29 88.9548 233.174 88.9714 234.179H85.5523ZM98.4985 233.544V236.181H90.8779V233.544H98.4985ZM92.608 230.513H96.1176V242.31C96.1176 242.634 96.1671 242.887 96.2659 243.068C96.3648 243.244 96.5021 243.368 96.6779 243.439C96.859 243.511 97.0678 243.546 97.3039 243.546C97.4688 243.546 97.6335 243.532 97.7982 243.505C97.9631 243.472 98.0894 243.447 98.1773 243.431L98.7293 246.043C98.5536 246.097 98.3063 246.161 97.9877 246.232C97.6693 246.309 97.282 246.356 96.8261 246.372C95.9803 246.405 95.2389 246.293 94.6016 246.034C93.97 245.776 93.4786 245.375 93.1269 244.831C92.7754 244.288 92.6024 243.601 92.608 242.772V230.513ZM103.184 250.944C102.739 250.944 102.321 250.909 101.931 250.837C101.547 250.772 101.228 250.686 100.976 250.582L101.767 247.962C102.178 248.089 102.549 248.157 102.879 248.168C103.214 248.179 103.502 248.102 103.744 247.937C103.991 247.773 104.191 247.493 104.345 247.097L104.551 246.562L100.012 233.544H103.703L106.322 242.838H106.454L109.099 233.544H112.814L107.896 247.567C107.66 248.248 107.339 248.841 106.932 249.346C106.531 249.857 106.023 250.25 105.408 250.524C104.793 250.805 104.051 250.944 103.184 250.944ZM118.352 229.326V246.199H114.842V229.326H118.352ZM127.163 246.446C125.861 246.446 124.741 246.183 123.801 245.655C122.868 245.123 122.148 244.37 121.643 243.398C121.137 242.42 120.885 241.264 120.885 239.93C120.885 238.628 121.137 237.485 121.643 236.502C122.148 235.519 122.859 234.753 123.777 234.204C124.699 233.655 125.781 233.38 127.023 233.38C127.857 233.38 128.635 233.514 129.354 233.783C130.079 234.047 130.711 234.445 131.249 234.978C131.793 235.511 132.216 236.181 132.518 236.988C132.82 237.79 132.971 238.729 132.971 239.806V240.77H122.285V238.595H129.667C129.667 238.09 129.557 237.642 129.338 237.252C129.118 236.862 128.813 236.557 128.423 236.337C128.039 236.112 127.591 236 127.08 236C126.547 236 126.075 236.123 125.663 236.37C125.257 236.612 124.938 236.939 124.708 237.351C124.477 237.757 124.359 238.21 124.353 238.71V240.778C124.353 241.404 124.469 241.945 124.699 242.401C124.935 242.857 125.268 243.208 125.696 243.456C126.125 243.703 126.633 243.826 127.22 243.826C127.61 243.826 127.967 243.771 128.291 243.662C128.615 243.552 128.893 243.387 129.123 243.167C129.354 242.948 129.53 242.679 129.651 242.36L132.897 242.574C132.732 243.354 132.394 244.035 131.883 244.617C131.378 245.194 130.724 245.644 129.923 245.968C129.126 246.287 128.206 246.446 127.163 246.446ZM150.314 234.179C150.248 233.514 149.965 232.998 149.465 232.63C148.965 232.262 148.287 232.078 147.43 232.078C146.848 232.078 146.357 232.16 145.956 232.325C145.555 232.484 145.247 232.707 145.033 232.993C144.824 233.278 144.72 233.602 144.72 233.965C144.709 234.267 144.772 234.53 144.909 234.756C145.052 234.981 145.247 235.176 145.494 235.341C145.741 235.5 146.027 235.64 146.351 235.761C146.675 235.876 147.021 235.975 147.389 236.057L148.905 236.42C149.641 236.585 150.317 236.804 150.932 237.079C151.547 237.354 152.08 237.691 152.53 238.092C152.98 238.493 153.329 238.966 153.576 239.509C153.829 240.053 153.958 240.677 153.963 241.38C153.958 242.412 153.694 243.307 153.173 244.065C152.656 244.818 151.909 245.403 150.932 245.82C149.96 246.232 148.787 246.438 147.414 246.438C146.052 246.438 144.865 246.229 143.855 245.812C142.85 245.394 142.064 244.777 141.499 243.958C140.938 243.134 140.644 242.116 140.617 240.902H144.069C144.107 241.467 144.269 241.94 144.555 242.319C144.846 242.692 145.233 242.975 145.717 243.167C146.205 243.354 146.758 243.447 147.373 243.447C147.977 243.447 148.501 243.359 148.946 243.184C149.397 243.008 149.745 242.764 149.992 242.451C150.24 242.137 150.363 241.778 150.363 241.371C150.363 240.992 150.251 240.674 150.025 240.416C149.806 240.157 149.482 239.938 149.053 239.756C148.63 239.575 148.111 239.41 147.496 239.262L145.659 238.801C144.237 238.455 143.113 237.914 142.289 237.178C141.465 236.442 141.056 235.45 141.062 234.204C141.056 233.182 141.328 232.29 141.877 231.526C142.432 230.763 143.193 230.167 144.16 229.738C145.126 229.31 146.225 229.096 147.455 229.096C148.707 229.096 149.8 229.31 150.734 229.738C151.673 230.167 152.404 230.763 152.925 231.526C153.447 232.29 153.716 233.174 153.733 234.179H150.314ZM162.247 246.446C160.967 246.446 159.86 246.174 158.927 245.631C157.998 245.081 157.282 244.318 156.776 243.34C156.271 242.357 156.018 241.218 156.018 239.921C156.018 238.614 156.271 237.472 156.776 236.494C157.282 235.511 157.998 234.747 158.927 234.204C159.86 233.655 160.967 233.38 162.247 233.38C163.527 233.38 164.63 233.655 165.559 234.204C166.492 234.747 167.212 235.511 167.717 236.494C168.223 237.472 168.475 238.614 168.475 239.921C168.475 241.218 168.223 242.357 167.717 243.34C167.212 244.318 166.492 245.081 165.559 245.631C164.63 246.174 163.527 246.446 162.247 246.446ZM162.263 243.728C162.845 243.728 163.331 243.563 163.721 243.233C164.111 242.898 164.405 242.442 164.603 241.866C164.806 241.289 164.908 240.632 164.908 239.897C164.908 239.161 164.806 238.504 164.603 237.928C164.405 237.351 164.111 236.895 163.721 236.56C163.331 236.225 162.845 236.057 162.263 236.057C161.676 236.057 161.181 236.225 160.78 236.56C160.385 236.895 160.085 237.351 159.882 237.928C159.685 238.504 159.586 239.161 159.586 239.897C159.586 240.632 159.685 241.289 159.882 241.866C160.085 242.442 160.385 242.898 160.78 243.233C161.181 243.563 161.676 243.728 162.263 243.728ZM179.104 240.811V233.544H182.614V246.199H179.244V243.901H179.112C178.827 244.642 178.352 245.238 177.687 245.688C177.028 246.139 176.223 246.364 175.273 246.364C174.427 246.364 173.683 246.172 173.041 245.787C172.398 245.403 171.896 244.856 171.533 244.148C171.176 243.439 170.995 242.591 170.989 241.602V233.544H174.499V240.976C174.504 241.723 174.705 242.313 175.1 242.747C175.496 243.181 176.026 243.398 176.69 243.398C177.113 243.398 177.509 243.302 177.877 243.11C178.245 242.912 178.541 242.621 178.767 242.236C178.997 241.852 179.11 241.377 179.104 240.811ZM185.653 246.199V233.544H189.056V235.753H189.188C189.418 234.967 189.806 234.374 190.349 233.973C190.893 233.567 191.519 233.363 192.228 233.363C192.404 233.363 192.593 233.374 192.796 233.396C192.999 233.418 193.178 233.448 193.332 233.487V236.601C193.167 236.552 192.939 236.508 192.648 236.469C192.357 236.431 192.09 236.412 191.849 236.412C191.332 236.412 190.871 236.524 190.465 236.749C190.064 236.969 189.745 237.277 189.509 237.672C189.278 238.068 189.163 238.523 189.163 239.04V246.199H185.653ZM200.507 246.446C199.211 246.446 198.096 246.172 197.162 245.622C196.234 245.068 195.52 244.299 195.02 243.316C194.526 242.332 194.278 241.201 194.278 239.921C194.278 238.625 194.528 237.488 195.028 236.51C195.533 235.527 196.25 234.761 197.178 234.212C198.107 233.657 199.211 233.38 200.49 233.38C201.594 233.38 202.561 233.58 203.39 233.981C204.22 234.382 204.876 234.945 205.359 235.67C205.843 236.395 206.109 237.246 206.158 238.224H202.847C202.753 237.593 202.506 237.084 202.105 236.7C201.71 236.31 201.191 236.115 200.548 236.115C200.004 236.115 199.529 236.263 199.123 236.56C198.722 236.851 198.409 237.277 198.183 237.837C197.958 238.397 197.846 239.075 197.846 239.872C197.846 240.679 197.956 241.366 198.175 241.931C198.4 242.497 198.716 242.928 199.123 243.225C199.529 243.522 200.004 243.67 200.548 243.67C200.949 243.67 201.309 243.587 201.627 243.423C201.951 243.258 202.218 243.019 202.426 242.706C202.641 242.387 202.781 242.006 202.847 241.561H206.158C206.104 242.528 205.84 243.379 205.368 244.115C204.901 244.845 204.255 245.417 203.431 245.828C202.608 246.24 201.633 246.446 200.507 246.446ZM214.405 246.446C213.103 246.446 211.982 246.183 211.043 245.655C210.11 245.123 209.39 244.37 208.885 243.398C208.379 242.42 208.127 241.264 208.127 239.93C208.127 238.628 208.379 237.485 208.885 236.502C209.39 235.519 210.101 234.753 211.018 234.204C211.941 233.655 213.023 233.38 214.265 233.38C215.099 233.38 215.877 233.514 216.596 233.783C217.321 234.047 217.953 234.445 218.491 234.978C219.035 235.511 219.458 236.181 219.76 236.988C220.062 237.79 220.213 238.729 220.213 239.806V240.77H209.527V238.595H216.909C216.909 238.09 216.799 237.642 216.58 237.252C216.36 236.862 216.055 236.557 215.665 236.337C215.281 236.112 214.833 236 214.322 236C213.79 236 213.317 236.123 212.905 236.37C212.499 236.612 212.18 236.939 211.95 237.351C211.719 237.757 211.601 238.21 211.595 238.71V240.778C211.595 241.404 211.711 241.945 211.941 242.401C212.178 242.857 212.51 243.208 212.938 243.456C213.367 243.703 213.875 243.826 214.462 243.826C214.852 243.826 215.209 243.771 215.533 243.662C215.857 243.552 216.135 243.387 216.365 243.167C216.596 242.948 216.772 242.679 216.893 242.36L220.139 242.574C219.974 243.354 219.636 244.035 219.125 244.617C218.62 245.194 217.966 245.644 217.165 245.968C216.368 246.287 215.448 246.446 214.405 246.446ZM233.264 237.153L230.051 237.351C229.996 237.076 229.878 236.829 229.697 236.609C229.516 236.384 229.277 236.206 228.98 236.074C228.689 235.937 228.34 235.868 227.934 235.868C227.39 235.868 226.931 235.983 226.558 236.214C226.185 236.439 225.998 236.741 225.998 237.12C225.998 237.422 226.119 237.678 226.36 237.886C226.602 238.095 227.017 238.263 227.604 238.389L229.895 238.85C231.125 239.103 232.042 239.509 232.646 240.069C233.25 240.63 233.553 241.366 233.553 242.278C233.553 243.107 233.308 243.835 232.819 244.461C232.336 245.087 231.671 245.576 230.825 245.927C229.985 246.273 229.016 246.446 227.917 246.446C226.242 246.446 224.908 246.097 223.913 245.4C222.925 244.697 222.345 243.741 222.175 242.533L225.627 242.352C225.731 242.862 225.984 243.253 226.385 243.522C226.786 243.785 227.299 243.917 227.925 243.917C228.541 243.917 229.035 243.799 229.409 243.563C229.787 243.321 229.98 243.011 229.985 242.632C229.98 242.313 229.845 242.052 229.582 241.849C229.318 241.64 228.911 241.481 228.362 241.371L226.171 240.935C224.935 240.687 224.015 240.259 223.411 239.649C222.812 239.04 222.513 238.263 222.513 237.318C222.513 236.505 222.733 235.805 223.172 235.217C223.617 234.629 224.24 234.176 225.042 233.858C225.849 233.539 226.794 233.38 227.876 233.38C229.474 233.38 230.732 233.718 231.649 234.393C232.572 235.069 233.11 235.989 233.264 237.153Z" fill="#11181C"/>
<path d="M467.4 278.1H84.6004C79.7955 278.1 75.9004 281.995 75.9004 286.8V383.466C75.9004 388.271 79.7955 392.166 84.6004 392.166H467.4C472.205 392.166 476.1 388.271 476.1 383.466V286.8C476.1 281.995 472.205 278.1 467.4 278.1Z" fill="white"/>
<path d="M152.266 284.867H88.466C85.2628 284.867 82.666 287.464 82.666 290.667V325.467C82.666 328.67 85.2628 331.267 88.466 331.267H152.266C155.469 331.267 158.066 328.67 158.066 325.467V290.667C158.066 287.464 155.469 284.867 152.266 284.867Z" fill="#096CFF"/>
<mask height="32" id="mask1_2345_48316" maskUnits="userSpaceOnUse" style="mask-type:luminance" width="61" x="90" y="292">
<path d="M150.334 292.6H90.4004V323.533H150.334V292.6Z" fill="white"/>
</mask>
<g mask="url(#mask1_2345_48316)">
<path d="M92.4434 315.801V298.928H94.4865V313.987H102.33V315.801H92.4434ZM110.487 316.063C109.344 316.063 108.342 315.793 107.479 315.248C106.623 314.704 105.953 313.945 105.469 312.966C104.991 311.989 104.753 310.846 104.753 309.539C104.753 308.221 104.991 307.07 105.469 306.087C105.953 305.104 106.623 304.34 107.479 303.797C108.342 303.253 109.344 302.981 110.487 302.981C111.629 302.981 112.629 303.253 113.486 303.797C114.348 304.34 115.018 305.104 115.496 306.087C115.979 307.07 116.221 308.221 116.221 309.539C116.221 310.846 115.979 311.989 115.496 312.966C115.018 313.945 114.348 314.704 113.486 315.248C112.629 315.793 111.629 316.063 110.487 316.063ZM110.487 314.318C111.354 314.318 112.068 314.095 112.629 313.65C113.189 313.205 113.604 312.62 113.873 311.895C114.142 311.17 114.276 310.385 114.276 309.539C114.276 308.693 114.142 307.905 113.873 307.175C113.604 306.444 113.189 305.854 112.629 305.403C112.068 304.953 111.354 304.728 110.487 304.728C109.619 304.728 108.905 304.953 108.345 305.403C107.784 305.854 107.37 306.444 107.101 307.175C106.831 307.905 106.697 308.693 106.697 309.539C106.697 310.385 106.831 311.17 107.101 311.895C107.37 312.62 107.784 313.205 108.345 313.65C108.905 314.095 109.619 314.318 110.487 314.318ZM124.446 316.063C123.259 316.063 122.238 315.783 121.381 315.224C120.524 314.664 119.865 313.892 119.404 312.909C118.942 311.926 118.712 310.802 118.712 309.539C118.712 308.254 118.948 307.12 119.42 306.137C119.898 305.148 120.563 304.376 121.414 303.822C122.271 303.261 123.27 302.981 124.413 302.981C125.302 302.981 126.104 303.146 126.818 303.476C127.532 303.805 128.117 304.266 128.573 304.86C129.029 305.453 129.312 306.145 129.422 306.936H127.477C127.329 306.359 127 305.848 126.489 305.403C125.984 304.953 125.302 304.728 124.446 304.728C123.688 304.728 123.023 304.926 122.452 305.321C121.886 305.711 121.444 306.263 121.126 306.977C120.812 307.686 120.656 308.518 120.656 309.473C120.656 310.451 120.81 311.302 121.117 312.027C121.43 312.752 121.87 313.315 122.435 313.716C123.007 314.117 123.677 314.318 124.446 314.318C124.951 314.318 125.41 314.231 125.821 314.055C126.233 313.879 126.582 313.626 126.868 313.296C127.153 312.966 127.357 312.571 127.477 312.11H129.422C129.312 312.857 129.04 313.529 128.606 314.128C128.178 314.722 127.609 315.193 126.901 315.545C126.198 315.891 125.379 316.063 124.446 316.063ZM136.104 316.096C135.302 316.096 134.574 315.946 133.921 315.644C133.267 315.337 132.748 314.894 132.364 314.318C131.979 313.735 131.787 313.032 131.787 312.208C131.787 311.483 131.93 310.896 132.215 310.445C132.501 309.99 132.883 309.633 133.36 309.374C133.838 309.116 134.366 308.924 134.942 308.798C135.525 308.666 136.109 308.562 136.697 308.485C137.466 308.386 138.09 308.312 138.567 308.262C139.051 308.207 139.402 308.117 139.622 307.99C139.847 307.864 139.96 307.644 139.96 307.331V307.265C139.96 306.452 139.737 305.821 139.292 305.37C138.853 304.92 138.186 304.695 137.29 304.695C136.362 304.695 135.634 304.898 135.107 305.304C134.58 305.711 134.209 306.145 133.995 306.606L132.149 305.947C132.479 305.178 132.918 304.579 133.468 304.151C134.022 303.717 134.627 303.415 135.28 303.245C135.939 303.069 136.587 302.981 137.224 302.981C137.631 302.981 138.098 303.031 138.625 303.129C139.158 303.223 139.671 303.418 140.166 303.714C140.665 304.011 141.08 304.459 141.41 305.057C141.739 305.656 141.904 306.458 141.904 307.463V315.801H139.96V314.088H139.861C139.729 314.362 139.509 314.656 139.202 314.969C138.894 315.282 138.485 315.547 137.974 315.768C137.463 315.988 136.84 316.096 136.104 316.096ZM136.401 314.351C137.169 314.351 137.818 314.2 138.345 313.898C138.878 313.595 139.279 313.205 139.548 312.727C139.822 312.25 139.96 311.747 139.96 311.22V309.44C139.877 309.539 139.696 309.63 139.416 309.712C139.141 309.789 138.823 309.858 138.46 309.918C138.103 309.973 137.755 310.023 137.414 310.066C137.079 310.105 136.807 310.138 136.598 310.165C136.093 310.231 135.621 310.338 135.181 310.487C134.747 310.629 134.396 310.846 134.127 311.138C133.863 311.423 133.731 311.813 133.731 312.307C133.731 312.983 133.981 313.494 134.481 313.84C134.986 314.18 135.626 314.351 136.401 314.351ZM147.513 298.928V315.801H145.569V298.928H147.513Z" fill="white"/>
</g>
<path d="M274.067 284.867H171.601C168.398 284.867 165.801 287.464 165.801 290.667V325.467C165.801 328.67 168.398 331.267 171.601 331.267H274.067C277.271 331.267 279.867 328.67 279.867 325.467V290.667C279.867 287.464 277.271 284.867 274.067 284.867Z" fill="#687076"/>
<mask height="32" id="mask2_2345_48316" maskUnits="userSpaceOnUse" style="mask-type:luminance" width="100" x="173" y="292">
<path d="M272.133 292.6H173.533V323.533H272.133V292.6Z" fill="white"/>
</mask>
<g mask="url(#mask2_2345_48316)">
<path d="M184.276 305.98L182.529 306.474C182.419 306.183 182.257 305.9 182.043 305.626C181.834 305.346 181.549 305.115 181.186 304.934C180.824 304.752 180.36 304.662 179.794 304.662C179.02 304.662 178.374 304.84 177.858 305.197C177.347 305.549 177.092 305.997 177.092 306.54C177.092 307.024 177.267 307.405 177.619 307.686C177.971 307.965 178.52 308.199 179.267 308.386L181.145 308.847C182.276 309.122 183.12 309.542 183.674 310.108C184.229 310.668 184.506 311.39 184.506 312.274C184.506 312.999 184.298 313.648 183.88 314.219C183.468 314.789 182.892 315.24 182.15 315.57C181.409 315.899 180.546 316.063 179.563 316.063C178.273 316.063 177.204 315.783 176.358 315.224C175.513 314.664 174.977 313.845 174.752 312.769L176.597 312.307C176.773 312.988 177.105 313.499 177.594 313.84C178.088 314.18 178.734 314.351 179.53 314.351C180.437 314.351 181.156 314.159 181.689 313.774C182.227 313.384 182.496 312.917 182.496 312.373C182.496 311.934 182.342 311.566 182.035 311.269C181.727 310.967 181.255 310.742 180.618 310.594L178.509 310.099C177.35 309.825 176.499 309.399 175.955 308.822C175.416 308.24 175.147 307.513 175.147 306.639C175.147 305.925 175.348 305.293 175.749 304.744C176.155 304.195 176.707 303.764 177.405 303.451C178.108 303.138 178.904 302.981 179.794 302.981C181.046 302.981 182.029 303.256 182.743 303.805C183.463 304.354 183.974 305.079 184.276 305.98ZM189.494 308.188V315.801H187.549V298.928H189.494V305.123H189.658C189.955 304.47 190.4 303.951 190.993 303.566C191.592 303.176 192.388 302.981 193.382 302.981C194.245 302.981 195 303.154 195.648 303.5C196.296 303.841 196.799 304.365 197.155 305.074C197.518 305.777 197.699 306.672 197.699 307.76V315.801H195.755V307.891C195.755 306.886 195.494 306.109 194.972 305.56C194.456 305.005 193.739 304.728 192.822 304.728C192.185 304.728 191.614 304.862 191.108 305.131C190.609 305.401 190.213 305.793 189.922 306.31C189.636 306.826 189.494 307.452 189.494 308.188ZM205.096 316.096C204.294 316.096 203.567 315.946 202.913 315.644C202.259 315.337 201.74 314.894 201.356 314.318C200.971 313.735 200.779 313.032 200.779 312.208C200.779 311.483 200.922 310.896 201.207 310.445C201.493 309.99 201.875 309.633 202.353 309.374C202.831 309.116 203.358 308.924 203.934 308.798C204.517 308.666 205.102 308.562 205.689 308.485C206.458 308.386 207.082 308.312 207.559 308.262C208.043 308.207 208.394 308.117 208.614 307.99C208.839 307.864 208.952 307.644 208.952 307.331V307.265C208.952 306.452 208.729 305.821 208.284 305.37C207.845 304.92 207.178 304.695 206.282 304.695C205.354 304.695 204.627 304.898 204.099 305.304C203.572 305.711 203.201 306.145 202.987 306.606L201.142 305.947C201.471 305.178 201.91 304.579 202.46 304.151C203.015 303.717 203.619 303.415 204.272 303.245C204.931 303.069 205.58 302.981 206.217 302.981C206.623 302.981 207.09 303.031 207.617 303.129C208.15 303.223 208.663 303.418 209.158 303.714C209.658 304.011 210.072 304.459 210.402 305.057C210.731 305.656 210.896 306.458 210.896 307.463V315.801H208.952V314.088H208.853C208.721 314.362 208.501 314.656 208.194 314.969C207.886 315.282 207.477 315.547 206.966 315.768C206.456 315.988 205.832 316.096 205.096 316.096ZM205.393 314.351C206.162 314.351 206.81 314.2 207.337 313.898C207.87 313.595 208.271 313.205 208.54 312.727C208.815 312.25 208.952 311.747 208.952 311.22V309.44C208.869 309.539 208.688 309.63 208.408 309.712C208.133 309.789 207.815 309.858 207.452 309.918C207.095 309.973 206.747 310.023 206.406 310.066C206.071 310.105 205.799 310.138 205.59 310.165C205.085 310.231 204.613 310.338 204.173 310.487C203.74 310.629 203.388 310.846 203.119 311.138C202.855 311.423 202.723 311.813 202.723 312.307C202.723 312.983 202.973 313.494 203.473 313.84C203.978 314.18 204.618 314.351 205.393 314.351ZM219.339 316.063C218.285 316.063 217.354 315.799 216.546 315.265C215.739 314.728 215.107 313.97 214.652 312.991C214.196 312.008 213.968 310.846 213.968 309.506C213.968 308.177 214.196 307.024 214.652 306.046C215.107 305.068 215.742 304.313 216.555 303.78C217.368 303.248 218.307 302.981 219.372 302.981C220.196 302.981 220.847 303.118 221.325 303.393C221.808 303.662 222.176 303.97 222.429 304.316C222.687 304.656 222.888 304.937 223.03 305.156H223.195V298.928H225.139V315.801H223.261V313.856H223.03C222.888 314.088 222.684 314.378 222.421 314.729C222.157 315.076 221.781 315.387 221.292 315.661C220.803 315.93 220.152 316.063 219.339 316.063ZM219.603 314.318C220.383 314.318 221.042 314.115 221.58 313.708C222.118 313.296 222.528 312.727 222.808 312.002C223.088 311.272 223.228 310.429 223.228 309.473C223.228 308.528 223.091 307.702 222.816 306.993C222.541 306.279 222.135 305.725 221.597 305.329C221.058 304.928 220.394 304.728 219.603 304.728C218.779 304.728 218.093 304.939 217.543 305.362C217 305.78 216.59 306.348 216.316 307.068C216.047 307.782 215.912 308.583 215.912 309.473C215.912 310.374 216.049 311.192 216.324 311.928C216.604 312.659 217.016 313.241 217.56 313.675C218.109 314.103 218.79 314.318 219.603 314.318ZM234.227 316.063C233.085 316.063 232.082 315.793 231.22 315.248C230.363 314.704 229.693 313.945 229.21 312.966C228.732 311.989 228.493 310.846 228.493 309.539C228.493 308.221 228.732 307.07 229.21 306.087C229.693 305.104 230.363 304.34 231.22 303.797C232.082 303.253 233.085 302.981 234.227 302.981C235.37 302.981 236.369 303.253 237.226 303.797C238.089 304.34 238.759 305.104 239.237 306.087C239.72 307.07 239.962 308.221 239.962 309.539C239.962 310.846 239.72 311.989 239.237 312.966C238.759 313.945 238.089 314.704 237.226 315.248C236.369 315.793 235.37 316.063 234.227 316.063ZM234.227 314.318C235.095 314.318 235.809 314.095 236.369 313.65C236.93 313.205 237.344 312.62 237.613 311.895C237.882 311.17 238.017 310.385 238.017 309.539C238.017 308.693 237.882 307.905 237.613 307.175C237.344 306.444 236.93 305.854 236.369 305.403C235.809 304.953 235.095 304.728 234.227 304.728C233.359 304.728 232.645 304.953 232.085 305.403C231.525 305.854 231.11 306.444 230.841 307.175C230.572 307.905 230.437 308.693 230.437 309.539C230.437 310.385 230.572 311.17 230.841 311.895C231.11 312.62 231.525 313.205 232.085 313.65C232.645 314.095 233.359 314.318 234.227 314.318ZM245.482 315.801L241.627 303.146H243.67L246.404 312.835H246.537L249.238 303.146H251.314L253.984 312.802H254.116L256.852 303.146H258.895L255.038 315.801H253.128L250.359 306.079H250.162L247.394 315.801H245.482ZM270.545 305.98L268.798 306.474C268.687 306.183 268.527 305.9 268.312 305.626C268.104 305.346 267.817 305.115 267.456 304.934C267.092 304.752 266.628 304.662 266.062 304.662C265.289 304.662 264.643 304.84 264.127 305.197C263.616 305.549 263.361 305.997 263.361 306.54C263.361 307.024 263.537 307.405 263.887 307.686C264.239 307.965 264.788 308.199 265.536 308.386L267.413 308.847C268.544 309.122 269.389 309.542 269.942 310.108C270.497 310.668 270.775 311.39 270.775 312.274C270.775 312.999 270.567 313.648 270.149 314.219C269.737 314.789 269.161 315.24 268.419 315.57C267.678 315.899 266.816 316.063 265.832 316.063C264.54 316.063 263.473 315.783 262.626 315.224C261.782 314.664 261.246 313.845 261.02 312.769L262.866 312.307C263.042 312.988 263.375 313.499 263.864 313.84C264.357 314.18 265.002 314.351 265.799 314.351C266.706 314.351 267.425 314.159 267.957 313.774C268.496 313.384 268.765 312.917 268.765 312.373C268.765 311.934 268.612 311.566 268.303 311.269C267.995 310.967 267.524 310.742 266.886 310.594L264.778 310.099C263.618 309.825 262.768 309.399 262.224 308.822C261.685 308.24 261.416 307.513 261.416 306.639C261.416 305.925 261.617 305.293 262.017 304.744C262.423 304.195 262.976 303.764 263.674 303.451C264.376 303.138 265.173 302.981 266.062 302.981C267.315 302.981 268.299 303.256 269.012 303.805C269.731 304.354 270.242 305.079 270.545 305.98Z" fill="white"/>
</g>
<path d="M440.333 284.867H293.4C290.196 284.867 287.6 287.464 287.6 290.667V325.467C287.6 328.67 290.196 331.267 293.4 331.267H440.333C443.536 331.267 446.133 328.67 446.133 325.467V290.667C446.133 287.464 443.536 284.867 440.333 284.867Z" fill="#687076"/>
<mask height="32" id="mask3_2345_48316" maskUnits="userSpaceOnUse" style="mask-type:luminance" width="144" x="295" y="292">
<path d="M438.401 292.6H295.334V323.533H438.401V292.6Z" fill="white"/>
</mask>
<g mask="url(#mask3_2345_48316)">
<path d="M297.113 315.799V303.144H298.992V305.122H299.157C299.422 304.446 299.847 303.921 300.435 303.548C301.022 303.169 301.728 302.979 302.552 302.979C303.387 302.979 304.081 303.169 304.636 303.548C305.197 303.921 305.633 304.446 305.947 305.122H306.078C306.401 304.468 306.888 303.949 307.536 303.564C308.184 303.174 308.961 302.979 309.867 302.979C310.998 302.979 311.925 303.334 312.644 304.042C313.363 304.745 313.723 305.841 313.723 307.329V315.799H311.78V307.329C311.78 306.396 311.524 305.728 311.012 305.327C310.502 304.926 309.9 304.726 309.208 304.726C308.319 304.726 307.629 304.995 307.141 305.533C306.652 306.066 306.407 306.742 306.407 307.56V315.799H304.431V307.132C304.431 306.412 304.197 305.833 303.729 305.393C303.263 304.948 302.662 304.726 301.925 304.726C301.421 304.726 300.947 304.861 300.508 305.13C300.075 305.399 299.723 305.772 299.455 306.25C299.19 306.723 299.058 307.269 299.058 307.89V315.799H297.113ZM321.118 316.095C320.317 316.095 319.588 315.944 318.935 315.642C318.281 315.335 317.761 314.892 317.378 314.316C316.994 313.734 316.8 313.031 316.8 312.207C316.8 311.482 316.943 310.894 317.23 310.444C317.516 309.988 317.897 309.631 318.374 309.373C318.852 309.114 319.379 308.922 319.956 308.796C320.539 308.664 321.123 308.56 321.711 308.483C322.481 308.384 323.103 308.31 323.581 308.26C324.064 308.205 324.416 308.115 324.636 307.988C324.86 307.862 324.975 307.642 324.975 307.329V307.263C324.975 306.451 324.752 305.819 324.306 305.369C323.867 304.918 323.2 304.693 322.305 304.693C321.377 304.693 320.648 304.896 320.122 305.303C319.594 305.709 319.223 306.143 319.008 306.604L317.164 305.945C317.493 305.176 317.933 304.578 318.482 304.149C319.037 303.715 319.64 303.413 320.294 303.243C320.953 303.067 321.601 302.979 322.239 302.979C322.645 302.979 323.113 303.029 323.639 303.128C324.172 303.221 324.685 303.416 325.179 303.713C325.68 304.009 326.094 304.457 326.425 305.056C326.753 305.654 326.918 306.456 326.918 307.461V315.799H324.975V314.086H324.874C324.743 314.36 324.524 314.654 324.217 314.967C323.907 315.281 323.499 315.545 322.989 315.766C322.477 315.986 321.854 316.095 321.118 316.095ZM321.415 314.349C322.183 314.349 322.832 314.198 323.358 313.896C323.892 313.594 324.292 313.204 324.563 312.726C324.837 312.248 324.975 311.745 324.975 311.218V309.438C324.891 309.537 324.71 309.628 324.429 309.71C324.155 309.787 323.838 309.856 323.474 309.916C323.117 309.971 322.769 310.021 322.428 310.065C322.094 310.103 321.821 310.136 321.612 310.163C321.108 310.229 320.634 310.337 320.195 310.485C319.762 310.628 319.41 310.845 319.142 311.136C318.877 311.421 318.745 311.811 318.745 312.306C318.745 312.981 318.995 313.492 319.495 313.838C320 314.179 320.64 314.349 321.415 314.349ZM332.033 303.144L335.065 308.318L338.096 303.144H340.337L336.252 309.472L340.337 315.799H338.096L335.065 310.888L332.033 315.799H329.792L333.812 309.472L329.792 303.144H332.033ZM349.957 307.659V309.472H342.576V307.659H349.957ZM356.36 315.799L352.505 303.144H354.549L357.284 312.833H357.416L360.117 303.144H362.193L364.863 312.8H364.995L367.73 303.144H369.774L365.917 315.799H364.007L361.238 306.077H361.041L358.272 315.799H356.36ZM379.709 307.659V309.472H372.328V307.659H379.709ZM389.146 298.926V315.799H387.102V301.068H387.004L382.884 303.803V301.727L387.102 298.926H389.146ZM393.718 312.338V310.658L401.134 298.926H402.352V301.529H401.529L395.926 310.394V310.526H405.912V312.338H393.718ZM401.66 315.799V311.828V311.045V298.926H403.605V315.799H401.66ZM408.721 312.338V310.658L416.135 298.926H417.355V301.529H416.529L410.929 310.394V310.526H420.912V312.338H408.721ZM416.663 315.799V311.828V311.045V298.926H418.606V315.799H416.663ZM429.62 316.029C428.379 316.029 427.321 315.692 426.447 315.016C425.576 314.335 424.907 313.349 424.446 312.058C423.984 310.762 423.754 309.197 423.754 307.362C423.754 305.539 423.984 303.982 424.446 302.691C424.912 301.395 425.583 300.406 426.457 299.725C427.335 299.039 428.39 298.695 429.62 298.695C430.85 298.695 431.901 299.039 432.775 299.725C433.655 300.406 434.324 301.395 434.786 302.691C435.252 303.982 435.486 305.539 435.486 307.362C435.486 309.197 435.256 310.762 434.794 312.058C434.332 313.349 433.665 314.335 432.793 315.016C431.919 315.692 430.861 316.029 429.62 316.029ZM429.62 314.217C430.85 314.217 431.807 313.624 432.487 312.437C433.168 311.251 433.508 309.559 433.508 307.362C433.508 305.901 433.351 304.657 433.038 303.63C432.731 302.603 432.286 301.821 431.704 301.282C431.128 300.744 430.432 300.475 429.62 300.475C428.4 300.475 427.447 301.076 426.761 302.279C426.074 303.476 425.732 305.171 425.732 307.362C425.732 308.823 425.885 310.065 426.192 311.086C426.5 312.108 426.942 312.885 427.519 313.418C428.1 313.95 428.802 314.217 429.62 314.217Z" fill="white"/>
</g>
<path d="M212.199 339H88.466C85.2628 339 82.666 341.597 82.666 344.8V379.6C82.666 382.803 85.2628 385.4 88.466 385.4H212.199C215.403 385.4 217.999 382.803 217.999 379.6V344.8C217.999 341.597 215.403 339 212.199 339Z" fill="#687076"/>
<mask height="32" id="mask4_2345_48316" maskUnits="userSpaceOnUse" style="mask-type:luminance" width="121" x="90" y="346">
<path d="M210.267 346.732H90.4004V377.666H210.267V346.732Z" fill="white"/>
</mask>
<g mask="url(#mask4_2345_48316)">
<path d="M94.1238 362.32V369.933H92.1797V353.061H94.1238V359.255H94.2888C94.5853 358.602 95.0302 358.084 95.6233 357.699C96.2221 357.309 97.0184 357.113 98.0126 357.113C98.8748 357.113 99.63 357.287 100.278 357.633C100.926 357.974 101.429 358.498 101.786 359.207C102.148 359.909 102.33 360.804 102.33 361.892V369.933H100.385V362.024C100.385 361.019 100.124 360.241 99.6025 359.692C99.0863 359.137 98.3696 358.861 97.4523 358.861C96.8152 358.861 96.2439 358.994 95.7388 359.265C95.2388 359.534 94.8434 359.926 94.5523 360.442C94.2667 360.959 94.1238 361.585 94.1238 362.32ZM111.308 370.196C110.089 370.196 109.037 369.927 108.153 369.39C107.274 368.847 106.596 368.087 106.118 367.116C105.646 366.138 105.409 365.001 105.409 363.704C105.409 362.409 105.646 361.266 106.118 360.278C106.596 359.282 107.26 358.509 108.112 357.954C108.969 357.394 109.968 357.113 111.111 357.113C111.77 357.113 112.421 357.223 113.063 357.444C113.706 357.662 114.291 358.02 114.818 358.515C115.345 359.004 115.765 359.652 116.078 360.458C116.392 361.266 116.548 362.26 116.548 363.441V364.265H106.794V362.585H114.571C114.571 361.871 114.428 361.233 114.142 360.673C113.862 360.112 113.461 359.671 112.94 359.346C112.423 359.023 111.814 358.861 111.111 358.861C110.336 358.861 109.666 359.052 109.1 359.437C108.54 359.816 108.109 360.311 107.807 360.92C107.505 361.529 107.354 362.182 107.354 362.88V364.002C107.354 364.957 107.519 365.767 107.848 366.432C108.183 367.091 108.647 367.594 109.24 367.94C109.834 368.28 110.523 368.45 111.308 368.45C111.819 368.45 112.281 368.379 112.692 368.236C113.11 368.087 113.47 367.868 113.772 367.576C114.074 367.281 114.307 366.911 114.472 366.473L116.35 367C116.153 367.636 115.82 368.197 115.353 368.68C114.887 369.158 114.31 369.533 113.623 369.802C112.937 370.065 112.165 370.196 111.308 370.196ZM123.346 370.229C122.544 370.229 121.816 370.078 121.162 369.777C120.509 369.469 119.99 369.026 119.605 368.45C119.221 367.868 119.029 367.165 119.029 366.341C119.029 365.616 119.171 365.028 119.457 364.578C119.743 364.122 120.124 363.766 120.602 363.507C121.08 363.25 121.607 363.056 122.184 362.931C122.766 362.799 123.351 362.695 123.939 362.617C124.708 362.519 125.331 362.443 125.809 362.395C126.292 362.339 126.644 362.25 126.863 362.123C127.089 361.997 127.201 361.776 127.201 361.463V361.398C127.201 360.586 126.979 359.953 126.534 359.503C126.095 359.052 125.427 358.828 124.532 358.828C123.604 358.828 122.876 359.031 122.349 359.437C121.822 359.843 121.451 360.278 121.237 360.738L119.391 360.079C119.721 359.311 120.16 358.712 120.709 358.283C121.264 357.85 121.868 357.548 122.522 357.378C123.181 357.202 123.829 357.113 124.466 357.113C124.873 357.113 125.339 357.164 125.867 357.262C126.399 357.355 126.913 357.55 127.407 357.848C127.907 358.144 128.322 358.592 128.651 359.19C128.981 359.789 129.146 360.591 129.146 361.597V369.933H127.201V368.22H127.102C126.971 368.495 126.751 368.789 126.443 369.102C126.136 369.415 125.727 369.68 125.216 369.9C124.705 370.121 124.082 370.229 123.346 370.229ZM123.642 368.483C124.411 368.483 125.059 368.332 125.587 368.031C126.119 367.727 126.52 367.339 126.789 366.861C127.064 366.382 127.201 365.879 127.201 365.353V363.573C127.119 363.671 126.938 363.762 126.658 363.845C126.383 363.922 126.064 363.99 125.702 364.05C125.345 364.106 124.996 364.154 124.656 364.199C124.321 364.238 124.049 364.27 123.84 364.298C123.335 364.363 122.862 364.472 122.423 364.618C121.989 364.762 121.638 364.978 121.368 365.27C121.105 365.556 120.973 365.945 120.973 366.44C120.973 367.116 121.223 367.627 121.723 367.973C122.228 368.313 122.868 368.483 123.642 368.483ZM137.589 370.196C136.534 370.196 135.603 369.931 134.796 369.398C133.989 368.86 133.357 368.102 132.901 367.124C132.445 366.14 132.217 364.98 132.217 363.638C132.217 362.31 132.445 361.156 132.901 360.18C133.357 359.201 133.991 358.445 134.804 357.914C135.617 357.38 136.556 357.113 137.622 357.113C138.446 357.113 139.096 357.251 139.574 357.525C140.058 357.796 140.426 358.103 140.678 358.449C140.936 358.789 141.137 359.07 141.28 359.288H141.445V353.061H143.389V369.933H141.51V367.988H141.28C141.137 368.22 140.934 368.51 140.67 368.862C140.407 369.208 140.03 369.519 139.541 369.794C139.053 370.063 138.402 370.196 137.589 370.196ZM137.852 368.45C138.632 368.45 139.292 368.247 139.83 367.841C140.368 367.43 140.777 366.861 141.057 366.136C141.337 365.405 141.477 364.562 141.477 363.605C141.477 362.662 141.34 361.834 141.066 361.127C140.791 360.412 140.384 359.857 139.846 359.462C139.308 359.06 138.643 358.861 137.852 358.861C137.029 358.861 136.342 359.072 135.793 359.495C135.249 359.913 134.84 360.481 134.565 361.2C134.296 361.914 134.162 362.716 134.162 363.605C134.162 364.506 134.299 365.324 134.573 366.061C134.854 366.792 135.266 367.373 135.809 367.808C136.358 368.236 137.04 368.45 137.852 368.45ZM147.336 369.933V357.28H149.28V369.933H147.336ZM148.324 355.17C147.946 355.17 147.619 355.041 147.344 354.782C147.075 354.525 146.94 354.213 146.94 353.852C146.94 353.488 147.075 353.179 147.344 352.92C147.619 352.663 147.946 352.533 148.324 352.533C148.703 352.533 149.027 352.663 149.297 352.92C149.571 353.179 149.709 353.488 149.709 353.852C149.709 354.213 149.571 354.525 149.297 354.782C149.027 355.041 148.703 355.17 148.324 355.17ZM154.902 362.32V369.933H152.957V357.28H154.836V359.255H155C155.297 358.614 155.747 358.097 156.352 357.707C156.956 357.312 157.736 357.113 158.691 357.113C159.548 357.113 160.298 357.289 160.94 357.641C161.583 357.987 162.083 358.515 162.44 359.223C162.797 359.926 162.975 360.816 162.975 361.892V369.933H161.031V362.024C161.031 361.03 160.773 360.255 160.257 359.7C159.74 359.141 159.032 358.861 158.131 358.861C157.511 358.861 156.956 358.994 156.467 359.265C155.984 359.534 155.602 359.926 155.322 360.442C155.042 360.959 154.902 361.585 154.902 362.32ZM171.752 374.942C170.813 374.942 170.006 374.821 169.33 374.579C168.655 374.343 168.092 374.03 167.641 373.641C167.196 373.257 166.842 372.845 166.578 372.404L168.127 371.317C168.303 371.548 168.525 371.812 168.795 372.108C169.064 372.41 169.432 372.671 169.899 372.891C170.371 373.115 170.989 373.23 171.752 373.23C172.774 373.23 173.617 372.982 174.282 372.487C174.946 371.992 175.278 371.219 175.278 370.163V367.594H175.114C174.971 367.824 174.768 368.11 174.504 368.45C174.246 368.785 173.872 369.084 173.384 369.347C172.9 369.606 172.247 369.736 171.423 369.736C170.401 369.736 169.484 369.494 168.671 369.011C167.864 368.528 167.224 367.824 166.751 366.902C166.285 365.98 166.051 364.858 166.051 363.54C166.051 362.244 166.279 361.115 166.735 360.154C167.191 359.188 167.825 358.44 168.638 357.914C169.451 357.38 170.39 357.113 171.456 357.113C172.28 357.113 172.933 357.251 173.416 357.525C173.905 357.796 174.279 358.103 174.537 358.449C174.801 358.789 175.004 359.07 175.147 359.288H175.344V357.28H177.223V370.297C177.223 371.383 176.976 372.267 176.481 372.949C175.992 373.636 175.333 374.138 174.504 374.455C173.68 374.78 172.763 374.942 171.752 374.942ZM171.686 367.988C172.466 367.988 173.125 367.81 173.664 367.453C174.202 367.097 174.611 366.583 174.891 365.912C175.171 365.243 175.311 364.441 175.311 363.507C175.311 362.596 175.174 361.79 174.899 361.094C174.625 360.396 174.218 359.849 173.68 359.455C173.142 359.058 172.477 358.861 171.686 358.861C170.862 358.861 170.176 359.07 169.627 359.487C169.083 359.903 168.674 360.464 168.399 361.167C168.13 361.871 167.996 362.65 167.996 363.507C167.996 364.386 168.133 365.164 168.407 365.838C168.687 366.509 169.099 367.035 169.643 367.42C170.192 367.799 170.874 367.988 171.686 367.988ZM188.148 361.794V363.605H180.766V361.794H188.148ZM193.629 353.061V369.933H191.685V353.061H193.629ZM202.414 374.942C201.475 374.942 200.668 374.821 199.992 374.579C199.317 374.343 198.754 374.03 198.303 373.641C197.858 373.257 197.504 372.845 197.241 372.404L198.789 371.317C198.965 371.548 199.188 371.812 199.457 372.108C199.726 372.41 200.094 372.671 200.561 372.891C201.033 373.115 201.651 373.23 202.414 373.23C203.436 373.23 204.279 372.982 204.944 372.487C205.608 371.992 205.941 371.219 205.941 370.163V367.594H205.776C205.633 367.824 205.43 368.11 205.166 368.45C204.908 368.785 204.534 369.084 204.046 369.347C203.562 369.606 202.909 369.736 202.085 369.736C201.063 369.736 200.146 369.494 199.333 369.011C198.526 368.528 197.886 367.824 197.414 366.902C196.947 365.98 196.713 364.858 196.713 363.54C196.713 362.244 196.941 361.115 197.397 360.154C197.853 359.188 198.487 358.44 199.3 357.914C200.113 357.38 201.052 357.113 202.118 357.113C202.942 357.113 203.595 357.251 204.079 357.525C204.567 357.796 204.941 358.103 205.199 358.449C205.463 358.789 205.666 359.07 205.809 359.288H206.006V357.28H207.885V370.297C207.885 371.383 207.638 372.267 207.143 372.949C206.654 373.636 205.995 374.138 205.166 374.455C204.342 374.78 203.425 374.942 202.414 374.942ZM202.348 367.988C203.128 367.988 203.788 367.81 204.326 367.453C204.864 367.097 205.273 366.583 205.553 365.912C205.833 365.243 205.973 364.441 205.973 363.507C205.973 362.596 205.836 361.79 205.562 361.094C205.287 360.396 204.88 359.849 204.342 359.455C203.804 359.058 203.139 358.861 202.348 358.861C201.525 358.861 200.838 359.07 200.289 359.487C199.745 359.903 199.336 360.464 199.061 361.167C198.792 361.871 198.658 362.65 198.658 363.507C198.658 364.386 198.795 365.164 199.069 365.838C199.35 366.509 199.762 367.035 200.305 367.42C200.854 367.799 201.536 367.988 202.348 367.988Z" fill="white"/>
</g>
<path d="M413.266 339H231.532C228.329 339 225.732 341.597 225.732 344.8V379.6C225.732 382.803 228.329 385.4 231.532 385.4H413.266C416.469 385.4 419.066 382.803 419.066 379.6V344.8C419.066 341.597 416.469 339 413.266 339Z" fill="#687076"/>
<mask height="32" id="mask5_2345_48316" maskUnits="userSpaceOnUse" style="mask-type:luminance" width="179" x="233" y="346">
<path d="M411.333 346.732H233.467V377.666H411.333V346.732Z" fill="white"/>
</mask>
<g mask="url(#mask5_2345_48316)">
<path d="M240.749 357.279V358.926H234.191V357.279H240.749ZM236.103 354.245H238.046V366.307C238.046 366.856 238.128 367.268 238.286 367.543C238.451 367.811 238.659 367.993 238.913 368.086C239.17 368.175 239.442 368.219 239.728 368.219C239.941 368.219 240.117 368.208 240.254 368.187C240.392 368.158 240.502 368.136 240.585 368.119L240.979 369.867C240.848 369.915 240.664 369.965 240.428 370.015C240.192 370.07 239.893 370.097 239.529 370.097C238.98 370.097 238.443 369.979 237.915 369.743C237.393 369.507 236.96 369.147 236.613 368.664C236.273 368.181 236.103 367.57 236.103 366.835V354.245ZM248.96 370.195C247.74 370.195 246.688 369.927 245.805 369.389C244.925 368.846 244.247 368.086 243.769 367.115C243.297 366.137 243.062 365 243.062 363.703C243.062 362.408 243.297 361.265 243.769 360.277C244.247 359.282 244.912 358.508 245.762 357.953C246.621 357.393 247.62 357.112 248.763 357.112C249.42 357.112 250.072 357.223 250.716 357.443C251.357 357.661 251.941 358.019 252.469 358.514C252.997 359.003 253.416 359.651 253.73 360.457C254.043 361.265 254.199 362.259 254.199 363.44V364.264H244.446V362.584H252.222C252.222 361.87 252.079 361.232 251.794 360.672C251.514 360.111 251.112 359.67 250.592 359.345C250.076 359.023 249.465 358.86 248.763 358.86C247.988 358.86 247.317 359.052 246.752 359.436C246.192 359.815 245.76 360.31 245.459 360.919C245.157 361.528 245.005 362.182 245.005 362.88V364.001C245.005 364.956 245.171 365.766 245.499 366.431C245.834 367.09 246.298 367.593 246.891 367.939C247.485 368.279 248.175 368.449 248.96 368.449C249.471 368.449 249.933 368.378 250.344 368.235C250.762 368.086 251.122 367.868 251.423 367.576C251.725 367.28 251.959 366.911 252.123 366.472L254.002 366.999C253.805 367.636 253.473 368.196 253.005 368.68C252.539 369.157 251.961 369.532 251.274 369.801C250.588 370.064 249.817 370.195 248.96 370.195ZM258.383 357.279L261.415 362.452L264.446 357.279H266.689L262.602 363.605L266.689 369.932H264.446L261.415 365.022L258.383 369.932H256.142L260.164 363.605L256.142 357.279H258.383ZM275.081 357.279V358.926H268.524V357.279H275.081ZM270.436 354.245H272.379V366.307C272.379 366.856 272.46 367.268 272.618 367.543C272.783 367.811 272.991 367.993 273.245 368.086C273.502 368.175 273.774 368.219 274.061 368.219C274.275 368.219 274.449 368.208 274.586 368.187C274.726 368.158 274.834 368.136 274.917 368.119L275.311 369.867C275.18 369.915 274.996 369.965 274.76 370.015C274.525 370.07 274.225 370.097 273.861 370.097C273.312 370.097 272.775 369.979 272.247 369.743C271.725 369.507 271.292 369.147 270.946 368.664C270.606 368.181 270.436 367.57 270.436 366.835V354.245ZM284.92 361.793V363.605H277.537V361.793H284.92ZM288.456 374.679V357.279H290.335V359.287H290.565C290.709 359.069 290.906 358.789 291.159 358.448C291.416 358.102 291.785 357.795 292.263 357.524C292.746 357.25 293.4 357.112 294.223 357.112C295.289 357.112 296.228 357.379 297.04 357.913C297.854 358.444 298.488 359.2 298.945 360.179C299.401 361.155 299.629 362.309 299.629 363.637C299.629 364.979 299.401 366.139 298.945 367.123C298.488 368.101 297.856 368.859 297.05 369.397C296.242 369.93 295.312 370.195 294.256 370.195C293.444 370.195 292.793 370.062 292.304 369.793C291.814 369.519 291.439 369.207 291.174 368.861C290.912 368.509 290.709 368.219 290.565 367.987H290.401V374.679H288.456ZM290.368 363.605C290.368 364.562 290.507 365.404 290.788 366.135C291.068 366.86 291.478 367.429 292.015 367.84C292.553 368.246 293.212 368.449 293.993 368.449C294.805 368.449 295.484 368.235 296.027 367.808C296.576 367.373 296.988 366.791 297.264 366.06C297.543 365.323 297.684 364.505 297.684 363.605C297.684 362.715 297.547 361.913 297.272 361.199C297.003 360.48 296.594 359.912 296.045 359.494C295.501 359.071 294.817 358.86 293.993 358.86C293.203 358.86 292.537 359.059 291.998 359.461C291.461 359.856 291.055 360.411 290.78 361.126C290.506 361.834 290.368 362.661 290.368 363.605ZM310.686 364.759V357.279H312.629V369.932H310.686V367.79H310.552C310.256 368.432 309.794 368.979 309.17 369.43C308.544 369.874 307.753 370.097 306.796 370.097C306.005 370.097 305.303 369.925 304.687 369.579C304.072 369.227 303.588 368.699 303.237 367.997C302.887 367.288 302.711 366.394 302.711 365.319V357.279H304.654V365.186C304.654 366.11 304.913 366.845 305.429 367.396C305.951 367.945 306.614 368.219 307.422 368.219C307.906 368.219 308.397 368.096 308.897 367.848C309.402 367.601 309.825 367.222 310.166 366.711C310.512 366.201 310.686 365.549 310.686 364.759ZM316.306 369.932V357.279H318.185V359.189H318.317C318.547 358.562 318.964 358.056 319.569 357.665C320.173 357.275 320.855 357.08 321.613 357.08C321.754 357.08 321.934 357.083 322.148 357.089C322.361 357.093 322.523 357.103 322.634 357.112V359.09C322.568 359.075 322.417 359.05 322.181 359.017C321.949 358.978 321.706 358.959 321.447 358.959C320.832 358.959 320.283 359.088 319.799 359.345C319.322 359.599 318.943 359.951 318.663 360.401C318.388 360.846 318.251 361.352 318.251 361.924V369.932H316.306ZM325.054 374.679V357.279H326.933V359.287H327.163C327.307 359.069 327.504 358.789 327.757 358.448C328.014 358.102 328.383 357.795 328.861 357.524C329.344 357.25 329.998 357.112 330.821 357.112C331.887 357.112 332.826 357.379 333.638 357.913C334.452 358.444 335.086 359.2 335.543 360.179C335.999 361.155 336.227 362.309 336.227 363.637C336.227 364.979 335.999 366.139 335.543 367.123C335.086 368.101 334.454 368.859 333.648 369.397C332.84 369.93 331.91 370.195 330.854 370.195C330.042 370.195 329.391 370.062 328.902 369.793C328.412 369.519 328.037 369.207 327.772 368.861C327.51 368.509 327.307 368.219 327.163 367.987H326.999V374.679H325.054ZM326.966 363.605C326.966 364.562 327.105 365.404 327.386 366.135C327.666 366.86 328.076 367.429 328.613 367.84C329.151 368.246 329.81 368.449 330.591 368.449C331.403 368.449 332.082 368.235 332.625 367.808C333.174 367.373 333.586 366.791 333.862 366.06C334.141 365.323 334.282 364.505 334.282 363.605C334.282 362.715 334.145 361.913 333.87 361.199C333.601 360.48 333.192 359.912 332.643 359.494C332.099 359.071 331.415 358.86 330.591 358.86C329.801 358.86 329.135 359.059 328.596 359.461C328.059 359.856 327.653 360.411 327.378 361.126C327.104 361.834 326.966 362.661 326.966 363.605ZM341.252 353.06V369.932H339.309V353.06H341.252ZM350.236 370.195C349.016 370.195 347.964 369.927 347.079 369.389C346.201 368.846 345.522 368.086 345.045 367.115C344.573 366.137 344.335 365 344.335 363.703C344.335 362.408 344.573 361.265 345.045 360.277C345.522 359.282 346.187 358.508 347.038 357.953C347.895 357.393 348.894 357.112 350.037 357.112C350.696 357.112 351.348 357.223 351.989 357.443C352.633 357.661 353.217 358.019 353.745 358.514C354.273 359.003 354.692 359.651 355.005 360.457C355.319 361.265 355.475 362.259 355.475 363.44V364.264H345.72V362.584H353.497C353.497 361.87 353.354 361.232 353.068 360.672C352.79 360.111 352.388 359.67 351.866 359.345C351.349 359.023 350.74 358.86 350.037 358.86C349.263 358.86 348.593 359.052 348.028 359.436C347.467 359.815 347.036 360.31 346.735 360.919C346.431 361.528 346.28 362.182 346.28 362.88V364.001C346.28 364.956 346.445 365.766 346.775 366.431C347.11 367.09 347.574 367.593 348.167 367.939C348.761 368.279 349.449 368.449 350.236 368.449C350.746 368.449 351.206 368.378 351.618 368.235C352.036 368.086 352.395 367.868 352.699 367.576C353.001 367.28 353.234 366.911 353.399 366.472L355.278 366.999C355.079 367.636 354.746 368.196 354.28 368.68C353.813 369.157 353.236 369.532 352.55 369.801C351.864 370.064 351.092 370.195 350.236 370.195ZM365.799 361.793V363.605H358.416V361.793H365.799ZM374.575 370.162C373.608 370.162 372.738 369.971 371.965 369.586C371.189 369.202 370.569 368.674 370.101 368.005C369.635 367.334 369.38 366.57 369.335 365.714H371.313C371.39 366.477 371.736 367.11 372.351 367.608C372.972 368.103 373.712 368.351 374.575 368.351C375.267 368.351 375.883 368.188 376.421 367.864C376.964 367.541 377.39 367.096 377.697 366.53C378.01 365.959 378.167 365.314 378.167 364.594C378.167 363.858 378.006 363.2 377.681 362.624C377.362 362.042 376.924 361.584 376.363 361.25C375.802 360.913 375.162 360.743 374.443 360.737C373.927 360.732 373.397 360.813 372.854 360.977C372.311 361.136 371.862 361.343 371.51 361.596L369.6 361.364L370.621 353.06H379.387V354.872H372.334L371.74 359.848H371.841C372.187 359.574 372.62 359.345 373.142 359.164C373.664 358.984 374.207 358.893 374.774 358.893C375.806 358.893 376.726 359.14 377.533 359.633C378.347 360.123 378.983 360.793 379.445 361.644C379.911 362.495 380.145 363.467 380.145 364.562C380.145 365.636 379.903 366.599 379.42 367.444C378.942 368.285 378.283 368.948 377.442 369.437C376.603 369.921 375.646 370.162 374.575 370.162ZM389.036 370.162C387.795 370.162 386.739 369.826 385.865 369.149C384.991 368.469 384.324 367.483 383.862 366.191C383.402 364.896 383.17 363.33 383.17 361.495C383.17 359.672 383.402 358.116 383.862 356.824C384.33 355.529 384.999 354.539 385.873 353.859C386.753 353.172 387.806 352.828 389.036 352.828C390.267 352.828 391.319 353.172 392.193 353.859C393.071 354.539 393.742 355.529 394.202 356.824C394.67 358.116 394.904 359.672 394.904 361.495C394.904 363.33 394.672 364.896 394.211 366.191C393.749 367.483 393.082 368.469 392.209 369.149C391.335 369.826 390.279 370.162 389.036 370.162ZM389.036 368.351C390.267 368.351 391.223 367.757 391.903 366.57C392.586 365.385 392.926 363.693 392.926 361.495C392.926 360.036 392.769 358.791 392.456 357.764C392.149 356.737 391.704 355.954 391.122 355.415C390.544 354.877 389.85 354.609 389.036 354.609C387.818 354.609 386.865 355.21 386.178 356.413C385.492 357.609 385.148 359.305 385.148 361.495C385.148 362.957 385.303 364.198 385.61 365.219C385.917 366.242 386.36 367.019 386.936 367.55C387.518 368.084 388.218 368.351 389.036 368.351ZM403.652 370.162C402.411 370.162 401.355 369.826 400.481 369.149C399.607 368.469 398.94 367.483 398.478 366.191C398.018 364.896 397.786 363.33 397.786 361.495C397.786 359.672 398.018 358.116 398.478 356.824C398.946 355.529 399.615 354.539 400.489 353.859C401.369 353.172 402.422 352.828 403.652 352.828C404.883 352.828 405.935 353.172 406.809 353.859C407.687 354.539 408.358 355.529 408.818 356.824C409.286 358.116 409.52 359.672 409.52 361.495C409.52 363.33 409.288 364.896 408.827 366.191C408.365 367.483 407.698 368.469 406.825 369.149C405.951 369.826 404.895 370.162 403.652 370.162ZM403.652 368.351C404.883 368.351 405.839 367.757 406.519 366.57C407.202 365.385 407.542 363.693 407.542 361.495C407.542 360.036 407.385 358.791 407.072 357.764C406.765 356.737 406.32 355.954 405.738 355.415C405.16 354.877 404.466 354.609 403.652 354.609C402.434 354.609 401.481 355.21 400.794 356.413C400.108 357.609 399.764 359.305 399.764 361.495C399.764 362.957 399.919 364.198 400.226 365.219C400.533 366.242 400.976 367.019 401.552 367.55C402.134 368.084 402.834 368.351 403.652 368.351Z" fill="white"/>
</g>
<path d="M467.4 278.1H84.6004C79.7955 278.1 75.9004 281.995 75.9004 286.8V383.466C75.9004 388.271 79.7955 392.166 84.6004 392.166H467.4C472.205 392.166 476.1 388.271 476.1 383.466V286.8C476.1 281.995 472.205 278.1 467.4 278.1Z" stroke="#C1C8CD" stroke-width="2"/>
<path d="M467.4 278.1H84.6004C79.7955 278.1 75.9004 281.995 75.9004 286.8V383.466C75.9004 388.271 79.7955 392.166 84.6004 392.166H467.4C472.205 392.166 476.1 388.271 476.1 383.466V286.8C476.1 281.995 472.205 278.1 467.4 278.1Z" stroke="url(#paint1_linear_2345_48316)" stroke-opacity="0.1" stroke-width="2"/>
<g style="mix-blend-mode:multiply">
<path d="M492.533 121.5H59.4668C51.4587 121.5 44.9668 127.992 44.9668 136V410.533C44.9668 418.541 51.4587 425.033 59.4668 425.033H492.533C500.542 425.033 507.033 418.541 507.033 410.533V136C507.033 127.992 500.542 121.5 492.533 121.5Z" fill="url(#paint2_linear_2345_48316)" fill-opacity="0.2"/>
</g>
</g>
<path d="M492.533 121.5H59.4668C51.4587 121.5 44.9668 127.992 44.9668 136V410.533C44.9668 418.541 51.4587 425.033 59.4668 425.033H492.533C500.542 425.033 507.033 418.541 507.033 410.533V136C507.033 127.992 500.542 121.5 492.533 121.5Z" stroke="#C1C8CD" stroke-width="2"/>
<path d="M492.533 121.5H59.4668C51.4587 121.5 44.9668 127.992 44.9668 136V410.533C44.9668 418.541 51.4587 425.033 59.4668 425.033H492.533C500.542 425.033 507.033 418.541 507.033 410.533V136C507.033 127.992 500.542 121.5 492.533 121.5Z" stroke="url(#paint3_linear_2345_48316)" stroke-opacity="0.2" stroke-width="2"/>
</g>
<g filter="url(#filter0_f_2345_48316)" style="mix-blend-mode:screen">
<path d="M25 121L65.6959 118.627L34.1672 92.7863L68.4858 114.787L58.1672 75.3493L73 113.32L87.8328 75.3493L77.5142 114.787L111.833 92.7863L80.3041 118.627L121 121L80.3041 123.373L111.833 149.214L77.5142 127.213L87.8328 166.651L73 128.68L58.1672 166.651L68.4858 127.213L34.1672 149.214L65.6959 123.373L25 121Z" fill="url(#paint4_radial_2345_48316)"/>
</g>
<defs>
<filter color-interpolation-filters="sRGB" filterUnits="userSpaceOnUse" height="95.3008" id="filter0_f_2345_48316" width="100" x="23" y="73.3496">
<feFlood flood-opacity="0" result="BackgroundImageFix"/>
<feBlend in="SourceGraphic" in2="BackgroundImageFix" mode="normal" result="shape"/>
<feGaussianBlur result="effect1_foregroundBlur_2345_48316" stdDeviation="1"/>
</filter>
<radialGradient cx="0" cy="0" gradientTransform="translate(276 276) rotate(90) scale(226.5 276)" gradientUnits="userSpaceOnUse" id="paint0_radial_2345_48316" r="1">
<stop stop-color="#4A4EFA"/>
<stop offset="1" stop-color="#E63CFE" stop-opacity="0"/>
</radialGradient>
<linearGradient gradientUnits="userSpaceOnUse" id="paint1_linear_2345_48316" x1="276" x2="276" y1="278.1" y2="392.166">
<stop stop-color="#FBF8FF"/>
<stop offset="1" stop-color="#2E48BA"/>
</linearGradient>
<linearGradient gradientUnits="userSpaceOnUse" id="paint2_linear_2345_48316" x1="276" x2="276" y1="200.5" y2="425.033">
<stop stop-color="#E63CFE" stop-opacity="0"/>
<stop offset="1" stop-color="#2E48BA"/>
</linearGradient>
<linearGradient gradientUnits="userSpaceOnUse" id="paint3_linear_2345_48316" x1="276" x2="276" y1="121.5" y2="425.033">
<stop stop-color="#FBF8FF"/>
<stop offset="1" stop-color="#2E48BA"/>
</linearGradient>
<radialGradient cx="0" cy="0" gradientTransform="translate(73 121) scale(26.6667)" gradientUnits="userSpaceOnUse" id="paint4_radial_2345_48316" r="1">
<stop offset="0.194445" stop-color="#FBFFF6"/>
<stop offset="1" stop-color="#F08DFE" stop-opacity="0"/>
</radialGradient>
<clipPath id="clip0_2345_48316">
<rect fill="white" height="307" transform="translate(43 120)" width="466"/>
</clipPath>
</defs>
</svg>